{
    "asset" : {
        "generator" : "Khronos glTF Blender I/O v1.7.33",
        "version" : "2.0"
    },
    "scene" : 0,
    "scenes" : [
        {
            "name" : "Scene",
            "nodes" : [
                0,
                1,
                2,
                3
            ]
        }
    ],
    "nodes" : [
        {
            "mesh" : 0,
            "name" : "Trompo_Mat.1_0",
            "scale" : [
                0.26125016808509827,
                0.26125016808509827,
                0.26125016808509827
            ],
            "translation" : [
                0,
                10.39673137664795,
                0
            ]
        },
        {
            "mesh" : 1,
            "name" : "Trompo_Mat_0",
            "scale" : [
                0.26125016808509827,
                0.26125016808509827,
                0.26125016808509827
            ],
            "translation" : [
                0,
                10.39673137664795,
                0
            ]
        },
        {
            "mesh" : 2,
            "name" : "Trompo_Mat.3_0",
            "scale" : [
                0.26125016808509827,
                0.26125016808509827,
                0.26125016808509827
            ],
            "translation" : [
                0,
                10.39673137664795,
                0
            ]
        },
        {
            "mesh" : 3,
            "name" : "Trompo_Mat.2_0",
            "scale" : [
                0.26125016808509827,
                0.26125016808509827,
                0.26125016808509827
            ],
            "translation" : [
                0,
                10.39673137664795,
                0
            ]
        }
    ],
    "materials" : [
        {
            "doubleSided" : true,
            "name" : "Mat.1",
            "pbrMetallicRoughness" : {
                "baseColorFactor" : [
                    0.4467009902000427,
                    0.4467009902000427,
                    0.4467009902000427,
                    1
                ],
                "metallicFactor" : 0,
                "roughnessFactor" : 0.6000000238418579
            }
        },
        {
            "doubleSided" : true,
            "name" : "material",
            "pbrMetallicRoughness" : {
                "baseColorFactor" : [
                    0.041261907666921616,
                    0.30538517236709595,
                    0.9161288142204285,
                    1
                ],
                "metallicFactor" : 0,
                "roughnessFactor" : 0.6000000238418579
            }
        },
        {
            "doubleSided" : true,
            "name" : "Mat.3",
            "pbrMetallicRoughness" : {
                "baseColorFactor" : [
                    0,
                    0,
                    0,
                    1
                ],
                "metallicFactor" : 0,
                "roughnessFactor" : 0.6000000238418579
            }
        },
        {
            "doubleSided" : true,
            "name" : "Mat.2",
            "pbrMetallicRoughness" : {
                "baseColorFactor" : [
                    0.7479898929595947,
                    0.7817260026931763,
                    0.047617800533771515,
                    1
                ],
                "metallicFactor" : 0,
                "roughnessFactor" : 0.6000000238418579
            }
        }
    ],
    "meshes" : [
        {
            "name" : "Trompo_Mat.1_0",
            "primitives" : [
                {
                    "attributes" : {
                        "POSITION" : 0,
                        "NORMAL" : 1,
                        "TEXCOORD_0" : 2
                    },
                    "indices" : 3,
                    "material" : 0
                }
            ]
        },
        {
            "name" : "Trompo_Mat_0",
            "primitives" : [
                {
                    "attributes" : {
                        "POSITION" : 4,
                        "NORMAL" : 5,
                        "TEXCOORD_0" : 6
                    },
                    "indices" : 7,
                    "material" : 1
                }
            ]
        },
        {
            "name" : "Trompo_Mat.3_0",
            "primitives" : [
                {
                    "attributes" : {
                        "POSITION" : 8,
                        "NORMAL" : 9,
                        "TEXCOORD_0" : 10
                    },
                    "indices" : 11,
                    "material" : 2
                }
            ]
        },
        {
            "name" : "Trompo_Mat.2_0",
            "primitives" : [
                {
                    "attributes" : {
                        "POSITION" : 12,
                        "NORMAL" : 13,
                        "TEXCOORD_0" : 14
                    },
                    "indices" : 15,
                    "material" : 3
                }
            ]
        }
    ],
    "accessors" : [
        {
            "bufferView" : 0,
            "componentType" : 5126,
            "count" : 241,
            "max" : [
                2.0775539875030518,
                -64.34518432617188,
                2.0775539875030518
            ],
            "min" : [
                -2.0775539875030518,
                -69.06449127197266,
                -2.0775539875030518
            ],
            "type" : "VEC3"
        },
        {
            "bufferView" : 1,
            "componentType" : 5126,
            "count" : 241,
            "type" : "VEC3"
        },
        {
            "bufferView" : 2,
            "componentType" : 5126,
            "count" : 241,
            "type" : "VEC2"
        },
        {
            "bufferView" : 3,
            "componentType" : 5123,
            "count" : 1344,
            "type" : "SCALAR"
        },
        {
            "bufferView" : 4,
            "componentType" : 5126,
            "count" : 1278,
            "max" : [
                16.890735626220703,
                -19.500244140625,
                16.890735626220703
            ],
            "min" : [
                -16.890735626220703,
                -64.34518432617188,
                -16.890735626220703
            ],
            "type" : "VEC3"
        },
        {
            "bufferView" : 5,
            "componentType" : 5126,
            "count" : 1278,
            "type" : "VEC3"
        },
        {
            "bufferView" : 6,
            "componentType" : 5126,
            "count" : 1278,
            "type" : "VEC2"
        },
        {
            "bufferView" : 7,
            "componentType" : 5123,
            "count" : 5952,
            "type" : "SCALAR"
        },
        {
            "bufferView" : 8,
            "componentType" : 5126,
            "count" : 400,
            "max" : [
                5.491008758544922,
                -19.617389678955078,
                5.491008758544922
            ],
            "min" : [
                -5.491008758544922,
                -23.953105926513672,
                -5.491008758544922
            ],
            "type" : "VEC3"
        },
        {
            "bufferView" : 9,
            "componentType" : 5126,
            "count" : 400,
            "type" : "VEC3"
        },
        {
            "bufferView" : 10,
            "componentType" : 5126,
            "count" : 400,
            "type" : "VEC2"
        },
        {
            "bufferView" : 11,
            "componentType" : 5123,
            "count" : 1536,
            "type" : "SCALAR"
        },
        {
            "bufferView" : 12,
            "componentType" : 5126,
            "count" : 165,
            "max" : [
                16.84066390991211,
                -35.32838439941406,
                16.84066390991211
            ],
            "min" : [
                -16.84066390991211,
                -40.97918701171875,
                -16.84066390991211
            ],
            "type" : "VEC3"
        },
        {
            "bufferView" : 13,
            "componentType" : 5126,
            "count" : 165,
            "type" : "VEC3"
        },
        {
            "bufferView" : 14,
            "componentType" : 5126,
            "count" : 165,
            "type" : "VEC2"
        },
        {
            "bufferView" : 15,
            "componentType" : 5123,
            "count" : 768,
            "type" : "SCALAR"
        }
    ],
    "bufferViews" : [
        {
            "buffer" : 0,
            "byteLength" : 2892,
            "byteOffset" : 0
        },
        {
            "buffer" : 0,
            "byteLength" : 2892,
            "byteOffset" : 2892
        },
        {
            "buffer" : 0,
            "byteLength" : 1928,
            "byteOffset" : 5784
        },
        {
            "buffer" : 0,
            "byteLength" : 2688,
            "byteOffset" : 7712
        },
        {
            "buffer" : 0,
            "byteLength" : 15336,
            "byteOffset" : 10400
        },
        {
            "buffer" : 0,
            "byteLength" : 15336,
            "byteOffset" : 25736
        },
        {
            "buffer" : 0,
            "byteLength" : 10224,
            "byteOffset" : 41072
        },
        {
            "buffer" : 0,
            "byteLength" : 11904,
            "byteOffset" : 51296
        },
        {
            "buffer" : 0,
            "byteLength" : 4800,
            "byteOffset" : 63200
        },
        {
            "buffer" : 0,
            "byteLength" : 4800,
            "byteOffset" : 68000
        },
        {
            "buffer" : 0,
            "byteLength" : 3200,
            "byteOffset" : 72800
        },
        {
            "buffer" : 0,
            "byteLength" : 3072,
            "byteOffset" : 76000
        },
        {
            "buffer" : 0,
            "byteLength" : 1980,
            "byteOffset" : 79072
        },
        {
            "buffer" : 0,
            "byteLength" : 1980,
            "byteOffset" : 81052
        },
        {
            "buffer" : 0,
            "byteLength" : 1320,
            "byteOffset" : 83032
        },
        {
            "buffer" : 0,
            "byteLength" : 1536,
            "byteOffset" : 84352
        }
    ],
    "buffers" : [
        {
            "byteLength" : 85888,
            "uri" : "data:application/octet-stream;base64,"
        }
    ]
}
